HIERARCHY
ROOT Hips
{
	OFFSET 0.00000 0.00000 0.00000
	CHANNELS 6 Xposition Yposition Zposition Zrotation Yrotation Xrotation 
	JOINT RightUpLegDummy
	{
		OFFSET 0 0 0
		CHANNELS 3 Zrotation Yrotation Xrotation
		JOINT RightUpLeg
		{
			OFFSET -3.52197 -3.41223 0.04002
			CHANNELS 3 Zrotation Yrotation Xrotation
			JOINT RightLeg
			{
				OFFSET 0.00006 -17.42390 1.60435
				CHANNELS 3 Zrotation Yrotation Xrotation
				JOINT RightFoot
				{
					OFFSET 0.06153 -16.50078 -1.63901
					CHANNELS 3 Zrotation Yrotation Xrotation
					JOINT RightToes
					{
						OFFSET 0.00298 -1.73825 3.34613
						CHANNELS 3 Zrotation Yrotation Xrotation
						End Site
						{
							OFFSET 0.00480 -0.05416 3.85043
						}
					}
				}
			}
		}
	}
	JOINT SpineDummy
	{
		OFFSET 0 0 0
		CHANNELS 3 Zrotation Yrotation Xrotation
		JOINT Spine
		{
			OFFSET 0.00000 4.68130 0.00000
			CHANNELS 3 Zrotation Yrotation Xrotation
			JOINT Spine1
			{
				OFFSET -0.00000 10.10138 0.05002
				CHANNELS 3 Zrotation Yrotation Xrotation
				JOINT HEadDummy
				{
					OFFSET 0 0 0
					CHANNELS 3 Zrotation Yrotation Xrotation
					JOINT Head
					{
						OFFSET -0.00000 3.43865 0.00438
						CHANNELS 3 Zrotation Yrotation Xrotation
						End Site
						{
							OFFSET -0.11417 5.02924 0.98962
						}
					}
				}
				JOINT LeftShoulder1Dummy
				{
					OFFSET 0 0 0
					CHANNELS 3 Zrotation Yrotation Xrotation
					JOINT LeftShoulder1
					{
						OFFSET 3.53937 -0.14262 -0.08662
						CHANNELS 3 Zrotation Yrotation Xrotation
						JOINT LeftArm
						{
							OFFSET 4.04833 -0.00133 0.12681
							CHANNELS 3 Zrotation Yrotation Xrotation
							JOINT LeftForeArm
							{
								OFFSET 10.33880 -0.01036 -0.55515
								CHANNELS 3 Zrotation Yrotation Xrotation
								JOINT LeftHand
								{
									OFFSET 8.69677 0.07543 0.40060
									CHANNELS 3 Zrotation Yrotation Xrotation
									End Site
									{
										OFFSET 5.28377 -0.21905 0.59205
									}
								}
							}
						}
					}
				}
				JOINT RightShoulderDummy
				{
					OFFSET 0 0 0
					CHANNELS 3 Zrotation Yrotation Xrotation
					JOINT RightShoulder
					{
						OFFSET -3.53937 -0.14262 -0.08660
						CHANNELS 3 Zrotation Yrotation Xrotation
						JOINT RightArm
						{
							OFFSET -4.04833 -0.00133 0.12683
							CHANNELS 3 Zrotation Yrotation Xrotation
							JOINT RightForeArm
							{
								OFFSET -10.37987 -0.01039 -0.55511
								CHANNELS 3 Zrotation Yrotation Xrotation
								JOINT RightHand
								{
									OFFSET -8.67398 0.07538 0.40058
									CHANNELS 3 Zrotation Yrotation Xrotation
									End Site
									{
										OFFSET -5.24810 -0.21916 0.59204
									}
								}
							}
						}
					}
				}
			}
		}
	}
	JOINT LeftUpLegDummy
	{
		OFFSET 0 0 0
		CHANNELS 3 Zrotation Yrotation Xrotation
		JOINT LeftUpLeg
		{
			OFFSET 3.52197 -3.41223 0.04002
			CHANNELS 3 Zrotation Yrotation Xrotation
			JOINT LeftLeg
			{
				OFFSET -0.00012 -17.42399 1.60337
				CHANNELS 3 Zrotation Yrotation Xrotation
				JOINT LeftFoot
				{
					OFFSET -0.09972 -16.50070 -1.63802
					CHANNELS 3 Zrotation Yrotation Xrotation
					JOINT LeftToes
					{
						OFFSET -0.01575 -1.73823 3.34611
						CHANNELS 3 Zrotation Yrotation Xrotation
						End Site
						{
							OFFSET 0.03150 -0.01868 3.85031
						}
					}
				}
			}
		}
	}
}
MOTION
Frames: 16
Frame Time: 0.033333
0.5301 40.0265 -2.5797 -2.0302 -11.0801 0.8821 0.0000 0.0000 0.0000 -1.4248 -2.2968 -0.1052 -2.4551 -6.6278 4.6851 2.1643 -0.1620 -3.2743 0.0000 -0.0000 0.0000 0.0000 0.0000 0.0000 -0.7508 -0.7657 1.2851 4.3785 -1.6262 1.1149 -0.0000 0.0000 -0.0000 8.1230 -7.3995 -9.1841 -0.0000 0.0000 -0.0000 -33.9330 -2.7434 2.4964 -44.5836 -18.2383 -17.7330 -9.8416 5.0567 50.7471 15.4491 -3.8981 -1.2077 -0.0000 0.0000 -0.0000 35.1949 5.2597 3.6125 38.5043 3.6965 -16.6713 10.6536 4.1195 20.5760 -12.4341 1.6258 -0.7383 0.0000 0.0000 0.0000 2.1977 2.3098 1.1581 5.0024 18.8265 8.0616 -0.6910 0.0582 -6.4228 0.0000 0.0000 -0.0000
0.4879 40.0383 -2.6283 -2.0490 -10.9828 0.8407 0.0000 0.0000 0.0000 -1.3281 -2.3189 0.0750 -2.4167 -6.7096 4.3257 2.1440 -0.1610 -3.1727 0.0000 -0.0000 0.0000 0.0000 0.0000 0.0000 -0.7604 -0.7311 1.2404 4.5587 -1.6289 1.1861 -0.0000 0.0000 -0.0000 7.9835 -7.4339 -9.2740 -0.0000 0.0000 -0.0000 -34.0456 -2.7535 2.5076 -44.5287 -18.1316 -17.7785 -9.8245 5.0546 50.8212 15.3666 -3.8623 -1.1966 -0.0000 0.0000 -0.0000 34.9475 5.2105 3.5702 38.6922 3.8814 -16.9118 10.5831 3.7337 20.6837 -12.0907 1.8924 -0.7431 0.0000 0.0000 0.0000 2.2958 2.3214 1.2709 4.9144 18.6985 7.7566 -0.7022 0.0589 -6.2730 0.0000 0.0000 -0.0000
0.4094 40.0630 -2.7132 -2.0835 -10.7819 0.8004 0.0000 0.0000 0.0000 -1.1689 -2.3972 0.4207 -2.2836 -6.8325 3.5645 2.0244 -0.1540 -2.9200 0.0000 -0.0000 0.0000 0.0000 0.0000 0.0000 -0.7259 -0.6986 1.1019 4.7615 -1.6410 1.2872 -0.0000 0.0000 -0.0000 7.9737 -7.4349 -9.3449 -0.0000 0.0000 -0.0000 -34.0952 -2.7601 2.5134 -44.5505 -17.8401 -17.6934 -9.9127 5.0559 50.7461 15.4920 -3.6864 -1.1844 -0.0000 0.0000 -0.0000 34.7259 5.1629 3.5312 38.8219 4.0874 -17.1316 10.5187 3.1348 21.0545 -11.6160 2.2300 -0.7445 0.0000 0.0000 0.0000 2.4871 2.3618 1.4603 4.7112 18.4321 7.1552 -0.6880 0.0580 -5.9932 0.0000 0.0000 -0.0000
0.3287 40.0855 -2.8033 -2.0937 -10.5260 0.7666 0.0000 0.0000 0.0000 -1.0357 -2.4542 0.6914 -2.1473 -7.0260 2.9204 1.8600 -0.1442 -2.6676 0.0000 -0.0000 0.0000 0.0000 0.0000 0.0000 -0.6720 -0.7009 0.9876 4.8246 -1.6586 1.3036 -0.0000 0.0000 -0.0000 8.2444 -7.3912 -9.3898 -0.0000 0.0000 -0.0000 -34.0079 -2.7481 2.5030 -44.6712 -17.4847 -17.5599 -10.0333 5.0583 50.6188 15.8360 -3.5233 -1.1906 -0.0000 0.0000 -0.0000 34.7515 5.1620 3.5331 38.7790 4.2266 -17.2823 10.4746 2.4869 21.5623 -11.5014 2.3431 -0.7473 0.0000 0.0000 0.0000 2.6662 2.4102 1.5648 4.5202 18.1095 6.6648 -0.6792 0.0574 -5.7412 0.0000 0.0000 -0.0000
0.2612 40.0990 -2.8980 -2.0831 -10.3146 0.7024 0.0000 0.0000 0.0000 -0.9355 -2.4657 0.7739 -2.0730 -7.2315 2.6767 1.7215 -0.1358 -2.5080 0.0000 -0.0000 0.0000 0.0000 0.0000 0.0000 -0.6129 -0.6918 1.0391 4.7826 -1.6394 1.2055 -0.0000 0.0000 -0.0000 8.5831 -7.4004 -9.4944 -0.0000 0.0000 -0.0000 -33.9143 -2.7362 2.4924 -44.7863 -17.2188 -17.5515 -10.0524 5.0591 50.5868 16.0759 -3.4784 -1.2034 -0.0000 0.0000 -0.0000 34.9082 5.1897 3.5582 38.7059 4.4318 -17.5582 10.3931 1.7247 21.9171 -11.7739 2.1302 -0.7454 0.0000 0.0000 0.0000 2.7938 2.4425 1.5490 4.4438 17.8494 6.4753 -0.7098 0.0594 -5.5626 0.0000 0.0000 -0.0000
0.1994 40.1046 -3.0061 -2.0906 -10.2457 0.6045 0.0000 0.0000 0.0000 -0.8146 -2.4297 0.6979 -2.0485 -7.3519 2.7516 1.6076 -0.1287 -2.4345 0.0000 -0.0000 0.0000 0.0000 0.0000 0.0000 -0.5472 -0.6137 1.2283 4.7470 -1.5506 1.0894 -0.0000 0.0000 -0.0000 8.7635 -7.4957 -9.7111 -0.0000 0.0000 -0.0000 -33.8910 -2.7543 2.4981 -44.8564 -17.0905 -17.6238 -10.0031 5.0602 50.5700 16.0671 -3.5100 -1.2069 -0.0000 0.0000 -0.0000 35.0460 5.2186 3.5823 38.6816 4.7473 -17.8174 10.3255 0.9967 21.9996 -12.0002 1.6973 -0.7188 0.0000 0.0000 0.0000 2.9397 2.5054 1.4707 4.4364 17.6929 6.5090 -0.7688 0.0632 -5.4446 0.0000 0.0000 -0.0000
0.1327 40.1040 -3.1240 -2.1182 -10.2986 0.5070 0.0000 0.0000 0.0000 -0.6501 -2.3375 0.5216 -2.0611 -7.4003 2.9780 1.4830 -0.1207 -2.4174 0.0000 -0.0000 0.0000 0.0000 0.0000 0.0000 -0.5185 -0.4926 1.4152 4.7725 -1.4310 1.0465 -0.0000 0.0000 -0.0000 8.8229 -7.5314 -10.0382 -0.0000 0.0000 -0.0000 -33.9056 -2.8002 2.5173 -44.8966 -17.0629 -17.6249 -10.0013 5.0611 50.5415 15.9852 -3.5879 -1.2107 -0.0000 0.0000 -0.0000 35.1446 5.2424 3.6008 38.6748 5.0844 -17.7114 10.3800 0.5749 22.0430 -11.9044 1.3274 -0.6777 0.0000 0.0000 0.0000 3.1564 2.6549 1.3587 4.3874 17.5628 6.6457 -0.8395 0.0678 -5.3883 0.0000 0.0000 -0.0000
0.0659 40.1010 -3.2389 -2.1285 -10.3617 0.4196 0.0000 0.0000 0.0000 -0.4897 -2.2212 0.3031 -2.1090 -7.4509 3.2677 1.3378 -0.1113 -2.4321 0.0000 -0.0000 0.0000 0.0000 0.0000 0.0000 -0.5475 -0.4146 1.5559 4.8020 -1.3554 1.0369 -0.0000 0.0000 -0.0000 8.9036 -7.3651 -10.4147 -0.0000 0.0000 -0.0000 -33.9266 -2.8363 2.5331 -44.9037 -17.0988 -17.5710 -10.0343 5.0563 50.6869 15.9642 -3.6926 -1.2227 -0.0000 0.0000 -0.0000 35.2148 5.2591 3.6139 38.7179 5.4362 -17.2992 10.5145 0.4097 22.3780 -11.7406 1.3288 -0.6682 0.0000 0.0000 0.0000 3.3752 2.8312 1.2136 4.3116 17.4130 6.8391 -0.9505 0.0749 -5.3776 0.0000 0.0000 -0.0000
0.0096 40.0991 -3.3429 -2.1136 -10.3807 0.3198 0.0000 0.0000 0.0000 -0.3756 -2.1347 0.1323 -2.1555 -7.5150 3.5178 1.1935 -0.1020 -2.4325 0.0000 -0.0000 0.0000 0.0000 0.0000 0.0000 -0.5628 -0.4193 1.6978 4.7485 -1.3473 0.9814 -0.0000 0.0000 -0.0000 8.9697 -7.0768 -10.6988 -0.0000 0.0000 -0.0000 -33.9313 -2.8357 2.5331 -44.9183 -17.1599 -17.5925 -10.0021 5.0463 51.0257 15.9430 -3.7167 -1.2242 -0.0000 0.0000 -0.0000 35.2333 5.2623 3.6169 38.8937 5.8693 -16.9762 10.5892 0.2452 22.9663 -11.8741 1.7209 -0.7134 0.0000 0.0000 0.0000 3.5001 2.9054 1.0874 4.3288 17.3183 7.0197 -1.1405 0.0871 -5.3481 0.0000 0.0000 -0.0000
-0.0360 40.1009 -3.4334 -2.1040 -10.3866 0.2157 0.0000 0.0000 0.0000 -0.2887 -2.0903 0.0710 -2.1607 -7.5544 3.5990 1.0827 -0.0951 -2.3724 0.0000 -0.0000 0.0000 0.0000 0.0000 0.0000 -0.5174 -0.4673 1.7969 4.6302 -1.3730 0.9197 -0.0000 0.0000 -0.0000 8.8646 -6.8497 -10.7431 -0.0000 0.0000 -0.0000 -33.8892 -2.8198 2.5241 -45.0254 -17.1982 -17.6820 -9.9157 5.0405 51.2455 15.9029 -3.6139 -1.2077 -0.0000 0.0000 -0.0000 35.2084 5.2545 3.6115 39.1647 6.3110 -16.8186 10.6092 0.1477 23.3379 -12.2139 2.1101 -0.7723 0.0000 0.0000 0.0000 3.5421 2.8566 1.0517 4.4466 17.3351 7.0530 -1.3761 0.1023 -5.2438 0.0000 0.0000 -0.0000
-0.0784 40.1071 -3.5088 -2.1117 -10.3895 0.1492 0.0000 0.0000 0.0000 -0.2024 -2.0640 0.0803 -2.1295 -7.5778 3.5110 1.0158 -0.0911 -2.2698 0.0000 -0.0000 0.0000 0.0000 0.0000 0.0000 -0.4871 -0.5079 1.7310 4.5643 -1.4043 0.9586 -0.0000 0.0000 -0.0000 8.5702 -6.7248 -10.5365 -0.0000 0.0000 -0.0000 -33.8528 -2.8366 2.5285 -45.1934 -17.2063 -17.7098 -9.8812 5.0425 51.1930 15.8918 -3.5477 -1.1972 -0.0000 0.0000 -0.0000 35.1760 5.2445 3.6045 39.4093 6.5977 -16.5504 10.6945 0.4000 23.1837 -12.3762 2.1356 -0.7854 0.0000 0.0000 0.0000 3.5834 2.7959 1.0858 4.5282 17.3750 6.9084 -1.5614 0.1142 -5.0858 0.0000 0.0000 -0.0000
-0.1205 40.1139 -3.5715 -2.1129 -10.3644 0.1124 0.0000 0.0000 0.0000 -0.1360 -2.0621 0.1003 -2.0732 -7.6041 3.3821 0.9579 -0.0876 -2.1835 0.0000 -0.0000 0.0000 0.0000 0.0000 0.0000 -0.5361 -0.5282 1.5306 4.5895 -1.4325 1.0855 -0.0000 0.0000 -0.0000 8.2603 -6.6401 -10.2094 -0.0000 0.0000 -0.0000 -33.9227 -2.8911 2.5547 -45.2961 -17.2240 -17.6343 -9.9193 5.0437 51.1395 15.8229 -3.6627 -1.2020 -0.0000 0.0000 -0.0000 35.1296 5.2314 3.5950 39.6074 6.7397 -16.1199 10.8497 0.9015 22.7758 -12.2886 1.9416 -0.7606 0.0000 0.0000 0.0000 3.6591 2.8077 1.1164 4.4981 17.3282 6.7291 -1.6411 0.1193 -4.9404 0.0000 0.0000 -0.0000
-0.1579 40.1184 -3.6291 -2.0982 -10.3450 0.0294 0.0000 0.0000 0.0000 -0.1145 -2.1107 0.1457 -1.9820 -7.5814 3.3085 0.8661 -0.0819 -2.1333 0.0000 -0.0000 0.0000 0.0000 0.0000 0.0000 -0.5975 -0.5366 1.4104 4.5996 -1.4437 1.1750 -0.0000 0.0000 -0.0000 8.0892 -6.5913 -9.9015 -0.0000 0.0000 -0.0000 -34.0627 -2.9205 2.5755 -45.3443 -17.2666 -17.5034 -9.9702 5.0399 51.2452 15.6495 -3.8245 -1.2148 -0.0000 0.0000 -0.0000 35.0513 5.2107 3.5795 39.8155 6.9300 -15.7756 10.9688 1.2022 22.5743 -12.2548 1.8971 -0.7541 0.0000 0.0000 0.0000 3.7418 2.8696 1.1536 4.4266 17.2331 6.6464 -1.6528 0.1201 -4.8421 0.0000 0.0000 -0.0000
-0.1866 40.1204 -3.6887 -2.0839 -10.4048 -0.1393 0.0000 0.0000 0.0000 -0.1107 -2.1752 0.2334 -1.8858 -7.4709 3.3077 0.7531 -0.0747 -2.0951 0.0000 -0.0000 0.0000 0.0000 0.0000 0.0000 -0.5957 -0.5371 1.4891 4.5178 -1.4288 1.1838 -0.0000 0.0000 -0.0000 8.0531 -6.5566 -9.6728 -0.0000 0.0000 -0.0000 -34.1376 -2.8772 2.5630 -45.4573 -17.3105 -17.3113 -10.0433 5.0404 51.1999 15.6412 -3.8422 -1.2162 -0.0000 0.0000 -0.0000 34.9830 5.1933 3.5663 39.9863 7.2871 -15.6182 11.0204 1.0996 22.6525 -12.4247 1.9583 -0.7709 0.0000 0.0000 0.0000 3.8147 2.9378 1.2548 4.3876 17.1981 6.6515 -1.6745 0.1215 -4.7867 0.0000 0.0000 -0.0000
-0.2065 40.1193 -3.7516 -2.0845 -10.5284 -0.3303 0.0000 0.0000 0.0000 -0.0727 -2.1750 0.2989 -1.8618 -7.3586 3.3755 0.6689 -0.0694 -2.0540 0.0000 -0.0000 0.0000 0.0000 0.0000 0.0000 -0.5646 -0.5295 1.6326 4.4136 -1.4027 1.1930 -0.0000 0.0000 -0.0000 8.0613 -6.4001 -9.5067 -0.0000 0.0000 -0.0000 -34.1611 -2.8102 2.5377 -45.5876 -17.3686 -17.0331 -10.1990 5.0516 50.7755 16.0087 -3.8235 -1.2435 -0.0000 0.0000 -0.0000 34.9834 5.1969 3.5678 39.9970 7.7194 -15.5300 11.0535 0.7935 22.8099 -12.5312 1.8373 -0.7656 0.0000 0.0000 0.0000 3.8914 3.0106 1.3708 4.3726 17.2197 6.7026 -1.7447 0.1260 -4.7679 0.0000 0.0000 -0.0000
-0.2187 40.1169 -3.8131 -2.0946 -10.6183 -0.4593 0.0000 0.0000 0.0000 0.0019 -2.0966 0.2823 -1.9279 -7.3514 3.4845 0.6321 -0.0671 -2.0181 0.0000 -0.0000 0.0000 0.0000 0.0000 0.0000 -0.5492 -0.5108 1.6818 4.3661 -1.3762 1.2228 -0.0000 0.0000 -0.0000 8.0203 -6.0404 -9.3447 -0.0000 0.0000 -0.0000 -34.2727 -2.8055 2.5429 -45.5735 -17.4774 -16.7463 -10.4034 5.0640 50.2884 16.4074 -3.9996 -1.2993 -0.0000 0.0000 -0.0000 35.0329 5.2182 3.5810 39.8632 8.0248 -15.4445 11.0876 0.5310 22.9933 -12.3758 1.7151 -0.7436 0.0000 0.0000 0.0000 3.9666 3.0809 1.3912 4.3651 17.2167 6.8045 -1.8374 0.1319 -4.7781 0.0000 0.0000 -0.0000
